<?xml version="1.0" encoding="utf-8"?>
<!-- Generator: Adobe Illustrator 19.0.0, SVG Export Plug-In . SVG Version: 6.00 Build 0)  -->
<svg version="1.1" id="Layer_1" xmlns="http://www.w3.org/2000/svg" xmlns:xlink="http://www.w3.org/1999/xlink" x="0px" y="0px"
	 viewBox="-162 395.4 287.7 50" style="enable-background:new -162 395.4 287.7 50;" xml:space="preserve">
<style type="text/css">
	.st0{fill:#1db954;}
	.st1{display:none;}
	.st2{display:inline;fill:#FFFFFF;}
	.st3{fill:#FFFFFF;}
	.st4{font-family:'ProximaNova-Semibold';}
	.st5{font-size:16px;}
</style>
<g>
	<path class="st0" d="M125.7,420.4c0,13.8-11.9,25-26.6,25h-234.4c-14.7,0-26.6-11.2-26.6-25l0,0c0-13.8,11.9-25,26.6-25H99
		C113.7,395.4,125.7,406.6,125.7,420.4L125.7,420.4z"/>
	<g>
		<g id="LOG_IN_WITH_SPOTIFY" class="st1">
			<path class="st2" d="M-98.8,426.5v-10.7h1.9v9h4.7v1.6h-6.6V426.5z"/>
			<path class="st2" d="M-90.7,421.2c0-3.2,2.3-5.5,5.5-5.5s5.5,2.3,5.5,5.5c0,3.2-2.3,5.5-5.5,5.5
				C-88.4,426.7-90.7,424.4-90.7,421.2z M-81.7,421.2c0-2.2-1.4-3.9-3.5-3.9c-2.2,0-3.5,1.6-3.5,3.9c0,2.2,1.4,3.9,3.5,3.9
				C-83.1,425-81.7,423.4-81.7,421.2z"/>
			<path class="st2" d="M-77.6,421.2c0-3.4,2.5-5.5,5.6-5.5c2.1,0,3.4,1,4.3,2.2l-1.5,0.9c-0.6-0.8-1.6-1.4-2.8-1.4
				c-2.1,0-3.7,1.6-3.7,3.9c0,2.2,1.6,3.9,3.7,3.9c1.1,0,2-0.5,2.5-1v-1.6h-3.2V421h5.1v4c-1,1.2-2.5,2-4.4,2
				C-75.1,426.7-77.6,424.5-77.6,421.2z"/>
			<path class="st2" d="M-60,426.5v-10.7h1.9v10.7C-58.1,426.5-60,426.5-60,426.5z"/>
			<path class="st2" d="M-47.6,426.5l-5.6-7.6v7.6H-55v-10.7h1.9l5.5,7.4v-7.4h1.9v10.7C-45.7,426.5-47.6,426.5-47.6,426.5z"/>
			<path class="st2" d="M-29.6,426.5l-2.1-7.9l-2.1,7.9h-2l-3-10.7h2.1l2.1,8.2l2.2-8.2h1.5l2.2,8.2l2.1-8.2h2.1l-3.1,10.7
				C-27.6,426.5-29.6,426.5-29.6,426.5z"/>
			<path class="st2" d="M-22.5,426.5v-10.7h1.9v10.7C-20.6,426.5-22.5,426.5-22.5,426.5z"/>
			<path class="st2" d="M-15,426.5v-9h-3.2v-1.6h8.3v1.6h-3.2v9H-15z"/>
			<path class="st2" d="M-0.1,426.5v-4.7h-5.6v4.7h-1.9v-10.7h1.9v4.4h5.6v-4.4h1.9v10.7C1.8,426.5-0.1,426.5-0.1,426.5z"/>
			<path class="st2" d="M9,425l1.1-1.5c0.7,0.8,1.9,1.5,3.4,1.5s2.1-0.8,2.1-1.5c0-2.2-6.2-0.8-6.2-4.8c0-1.8,1.5-3.1,3.9-3.1
				c1.6,0,3,0.5,4,1.5l-1.1,1.4c-0.8-0.8-2-1.2-3.1-1.2s-1.8,0.5-1.8,1.3c0,2,6.2,0.8,6.2,4.7c0,1.8-1.3,3.3-4.1,3.3
				C11.4,426.7,10,426,9,425z"/>
			<path class="st2" d="M20,426.5v-10.7h4.7c2.2,0,3.5,1.5,3.5,3.3c0,1.8-1.2,3.3-3.5,3.3h-2.8v4H20V426.5z M26.3,419.2
				c0-1-0.8-1.7-1.8-1.7h-2.6v3.4h2.6C25.5,420.9,26.3,420.2,26.3,419.2z"/>
			<path class="st2" d="M30.1,421.2c0-3.2,2.3-5.5,5.5-5.5s5.5,2.3,5.5,5.5c0,3.2-2.3,5.5-5.5,5.5C32.4,426.7,30.1,424.4,30.1,421.2
				z M39.1,421.2c0-2.2-1.4-3.9-3.5-3.9c-2.2,0-3.5,1.6-3.5,3.9c0,2.2,1.4,3.9,3.5,3.9C37.7,425,39.1,423.4,39.1,421.2z"/>
			<path class="st2" d="M45.8,426.5v-9h-3.2v-1.6h8.3v1.6h-3.2v9H45.8z"/>
			<path class="st2" d="M53.3,426.5v-10.7h1.9v10.7C55.2,426.5,53.3,426.5,53.3,426.5z"/>
			<path class="st2" d="M58.2,426.5v-10.7h7.3v1.6h-5.4v2.8h5.3v1.7h-5.3v4.6H58.2z"/>
			<path class="st2" d="M71.1,426.5v-4.4l-4.1-6.2h2.1l2.9,4.6l2.9-4.6H77l-4.1,6.2v4.4H71.1z"/>
		</g>
	</g>
</g>
<g>
	<g id="SPOTIFY_LOGO">
		<g>
			<g>
				<path class="st3" d="M-124.7,409c-6.3,0-11.4,5.1-11.4,11.4s5.1,11.4,11.4,11.4c6.3,0,11.4-5.1,11.4-11.4
					C-113.4,414.1-118.5,409-124.7,409z M-119.5,425.4c-0.2,0.3-0.6,0.4-1,0.2c-2.7-1.6-6-2-10-1.1c-0.4,0.1-0.8-0.2-0.8-0.5
					c-0.1-0.4,0.2-0.8,0.5-0.8c4.3-1,8-0.6,11,1.3C-119.4,424.6-119.3,425-119.5,425.4z M-118.1,422.3c-0.3,0.4-0.8,0.5-1.2,0.3
					c-3.1-1.9-7.7-2.4-11.3-1.3c-0.5,0.1-1-0.1-1.1-0.6c-0.1-0.5,0.1-1,0.6-1.1c4.1-1.3,9.3-0.6,12.8,1.5
					C-118,421.3-117.9,421.9-118.1,422.3z M-118,419.1c-3.7-2.2-9.7-2.4-13.2-1.3c-0.6,0.2-1.2-0.1-1.3-0.7
					c-0.2-0.6,0.1-1.2,0.7-1.3c4-1.2,10.7-1,14.9,1.5c0.5,0.3,0.7,1,0.4,1.5C-116.9,419.2-117.5,419.4-118,419.1z"/>
			</g>
		</g>
	</g>
	<text transform="matrix(1 0 0 1 -102.4356 426.6902)" class="st3 st4 st5">CONNECT WITH SPOTIFY</text>
</g>
</svg>
